HIERARCHY
ROOT Hips
{
  OFFSET 0.000 66.367 0.000
  CHANNELS 6 Xposition Yposition Zposition Zrotation Xrotation Yrotation
  JOINT LeftUpLeg
  {
    OFFSET 7.866 0.994 2.978
    CHANNELS 6 Xposition Yposition Zposition Zrotation Xrotation Yrotation
    JOINT LeftLeg
    {
      OFFSET 0.000 -35.992 0.000
      CHANNELS 6 Xposition Yposition Zposition Zrotation Xrotation Yrotation
      JOINT LeftFoot
      {
        OFFSET 0.000 -31.369 0.000
        CHANNELS 6 Xposition Yposition Zposition Zrotation Xrotation Yrotation
        End Site
        {
          OFFSET 0.000 0.000 9.548
        }
      }
    }
  }
  JOINT RightUpLeg
  {
    OFFSET -7.866 0.994 2.978
    CHANNELS 6 Xposition Yposition Zposition Zrotation Xrotation Yrotation
    JOINT RightLeg
    {
      OFFSET 0.000 -35.992 0.000
      CHANNELS 6 Xposition Yposition Zposition Zrotation Xrotation Yrotation
      JOINT RightFoot
      {
        OFFSET 0.000 -31.369 0.000
        CHANNELS 6 Xposition Yposition Zposition Zrotation Xrotation Yrotation
        End Site
        {
          OFFSET 0.000 0.000 9.548
        }
      }
    }
  }
  JOINT Spine
  {
    OFFSET 0.000 30.810 0.000
    CHANNELS 6 Xposition Yposition Zposition Zrotation Xrotation Yrotation
    JOINT Spine1
    {
      OFFSET 0.000 22.563 0.000
      CHANNELS 6 Xposition Yposition Zposition Zrotation Xrotation Yrotation
      JOINT LeftShoulder
      {
        OFFSET 1.773 -0.330 0.013
        CHANNELS 6 Xposition Yposition Zposition Zrotation Xrotation Yrotation
        JOINT LeftArm
        {
          OFFSET 16.216 0.000 0.000
          CHANNELS 6 Xposition Yposition Zposition Zrotation Xrotation Yrotation
          JOINT LeftForeArm
          {
            OFFSET 22.333 0.000 0.000
            CHANNELS 6 Xposition Yposition Zposition Zrotation Xrotation Yrotation
            JOINT LeftHand
            {
              OFFSET 22.521 0.000 0.000
              CHANNELS 6 Xposition Yposition Zposition Zrotation Xrotation Yrotation
              JOINT LeftHandThumb1
              {
                OFFSET 4.877 -1.044 3.608
                CHANNELS 6 Xposition Yposition Zposition Zrotation Xrotation Yrotation
                JOINT LeftHandThumb2
                {
                  OFFSET 2.665 0.000 0.000
                  CHANNELS 6 Xposition Yposition Zposition Zrotation Xrotation Yrotation
                  JOINT LeftHandThumb3
                  {
                    OFFSET 2.543 0.000 0.000
                    CHANNELS 6 Xposition Yposition Zposition Zrotation Xrotation Yrotation
                    End Site
                    {
                      OFFSET 2.667 0.000 0.000
                    }
                  }
                }
              }
              JOINT LeftHandIndex1
              {
                OFFSET 9.232 -0.301 2.144
                CHANNELS 6 Xposition Yposition Zposition Zrotation Xrotation Yrotation
                JOINT LeftHandIndex2
                {
                  OFFSET 4.225 0.000 -0.000
                  CHANNELS 6 Xposition Yposition Zposition Zrotation Xrotation Yrotation
                  JOINT LeftHandIndex3
                  {
                    OFFSET 2.654 0.000 0.000
                    CHANNELS 6 Xposition Yposition Zposition Zrotation Xrotation Yrotation
                    End Site
                    {
                      OFFSET 1.958 0.000 0.000
                    }
                  }
                }
              }
              JOINT LeftHandMiddle1
              {
                OFFSET 8.920 -0.000 0.000
                CHANNELS 6 Xposition Yposition Zposition Zrotation Xrotation Yrotation
                JOINT LeftHandMiddle2
                {
                  OFFSET 4.863 0.000 0.000
                  CHANNELS 6 Xposition Yposition Zposition Zrotation Xrotation Yrotation
                  JOINT LeftHandMiddle3
                  {
                    OFFSET 2.765 0.000 0.000
                    CHANNELS 6 Xposition Yposition Zposition Zrotation Xrotation Yrotation
                    End Site
                    {
                      OFFSET 2.006 -0.000 -0.000
                    }
                  }
                }
              }
              JOINT LeftHandRing1
              {
                OFFSET 8.689 -0.126 -2.087
                CHANNELS 6 Xposition Yposition Zposition Zrotation Xrotation Yrotation
                JOINT LeftHandRing2
                {
                  OFFSET 4.538 0.000 0.000
                  CHANNELS 6 Xposition Yposition Zposition Zrotation Xrotation Yrotation
                  JOINT LeftHandRing3
                  {
                    OFFSET 2.305 0.000 -0.000
                    CHANNELS 6 Xposition Yposition Zposition Zrotation Xrotation Yrotation
                    End Site
                    {
                      OFFSET 1.923 -0.000 0.000
                    }
                  }
                }
              }
              JOINT LeftHandPinky1
              {
                OFFSET 8.391 -0.817 -3.758
                CHANNELS 6 Xposition Yposition Zposition Zrotation Xrotation Yrotation
                JOINT LeftHandPinky2
                {
                  OFFSET 3.044 0.000 0.000
                  CHANNELS 6 Xposition Yposition Zposition Zrotation Xrotation Yrotation
                  JOINT LeftHandPinky3
                  {
                    OFFSET 1.975 0.000 -0.000
                    CHANNELS 6 Xposition Yposition Zposition Zrotation Xrotation Yrotation
                    End Site
                    {
                      OFFSET 1.667 -0.000 0.000
                    }
                  }
                }
              }
            }
          }
        }
      }
      JOINT RightShoulder
      {
        OFFSET -1.773 -0.330 0.013
        CHANNELS 6 Xposition Yposition Zposition Zrotation Xrotation Yrotation
        JOINT RightArm
        {
          OFFSET -16.216 0.000 0.000
          CHANNELS 6 Xposition Yposition Zposition Zrotation Xrotation Yrotation
          JOINT RightForeArm
          {
            OFFSET -22.333 0.000 0.000
            CHANNELS 6 Xposition Yposition Zposition Zrotation Xrotation Yrotation
            JOINT RightHand
            {
              OFFSET -22.521 0.000 0.000
              CHANNELS 6 Xposition Yposition Zposition Zrotation Xrotation Yrotation
              JOINT RightHandThumb1
              {
                OFFSET -4.877 -1.044 3.608
                CHANNELS 6 Xposition Yposition Zposition Zrotation Xrotation Yrotation
                JOINT RightHandThumb2
                {
                  OFFSET -2.665 -0.000 -0.000
                  CHANNELS 6 Xposition Yposition Zposition Zrotation Xrotation Yrotation
                  JOINT RightHandThumb3
                  {
                    OFFSET -2.543 0.000 0.000
                    CHANNELS 6 Xposition Yposition Zposition Zrotation Xrotation Yrotation
                    End Site
                    {
                      OFFSET -2.667 -0.000 -0.000
                    }
                  }
                }
              }
              JOINT RightHandIndex1
              {
                OFFSET -9.232 -0.301 2.144
                CHANNELS 6 Xposition Yposition Zposition Zrotation Xrotation Yrotation
                JOINT RightHandIndex2
                {
                  OFFSET -4.225 0.000 0.000
                  CHANNELS 6 Xposition Yposition Zposition Zrotation Xrotation Yrotation
                  JOINT RightHandIndex3
                  {
                    OFFSET -2.654 0.000 0.000
                    CHANNELS 6 Xposition Yposition Zposition Zrotation Xrotation Yrotation
                    End Site
                    {
                      OFFSET -1.958 0.000 -0.000
                    }
                  }
                }
              }
              JOINT RightHandMiddle1
              {
                OFFSET -8.920 0.000 0.000
                CHANNELS 6 Xposition Yposition Zposition Zrotation Xrotation Yrotation
                JOINT RightHandMiddle2
                {
                  OFFSET -4.863 0.000 -0.000
                  CHANNELS 6 Xposition Yposition Zposition Zrotation Xrotation Yrotation
                  JOINT RightHandMiddle3
                  {
                    OFFSET -2.765 -0.000 -0.000
                    CHANNELS 6 Xposition Yposition Zposition Zrotation Xrotation Yrotation
                    End Site
                    {
                      OFFSET -2.006 0.000 0.000
                    }
                  }
                }
              }
              JOINT RightHandRing1
              {
                OFFSET -8.689 -0.126 -2.087
                CHANNELS 6 Xposition Yposition Zposition Zrotation Xrotation Yrotation
                JOINT RightHandRing2
                {
                  OFFSET -4.538 0.000 0.000
                  CHANNELS 6 Xposition Yposition Zposition Zrotation Xrotation Yrotation
                  JOINT RightHandRing3
                  {
                    OFFSET -2.305 0.000 0.000
                    CHANNELS 6 Xposition Yposition Zposition Zrotation Xrotation Yrotation
                    End Site
                    {
                      OFFSET -1.923 0.000 0.000
                    }
                  }
                }
              }
              JOINT RightHandPinky1
              {
                OFFSET -8.391 -0.817 -3.758
                CHANNELS 6 Xposition Yposition Zposition Zrotation Xrotation Yrotation
                JOINT RightHandPinky2
                {
                  OFFSET -3.044 0.000 0.000
                  CHANNELS 6 Xposition Yposition Zposition Zrotation Xrotation Yrotation
                  JOINT RightHandPinky3
                  {
                    OFFSET -1.975 0.000 0.000
                    CHANNELS 6 Xposition Yposition Zposition Zrotation Xrotation Yrotation
                    End Site
                    {
                      OFFSET -1.667 0.000 0.000
                    }
                  }
                }
              }
            }
          }
        }
      }
      JOINT Neck
      {
        OFFSET 0.000 0.744 0.000
        CHANNELS 6 Xposition Yposition Zposition Zrotation Xrotation Yrotation
        JOINT Head
        {
          OFFSET 0.000 6.706 0.000
          CHANNELS 6 Xposition Yposition Zposition Zrotation Xrotation Yrotation
          End Site
          {
            OFFSET 0.000 13.787 0.000
          }
        }
      }
    }
  }
}
MOTION
Frames:	4
Frame Time:	0.033333
-1.89057 77.37868 -234.39600 1.01962 1.30796 9.57285 7.23452 0.48130 3.29172 -3.32388 4.21879 1.56336 0.00685 -34.64143 0.00372 7.44667 -1.33154 5.95123 -0.00671 -33.33657 -0.00796 0.80336 30.61944 -1.57182 -8.30790 0.51058 3.24849 -0.46073 6.58458 -1.12369 0.00538 -37.17722 0.00845 -5.63945 -7.25404 -22.18773 -0.00530 -31.88877 0.00237 2.89923 32.15847 -5.43376 0.00772 29.56866 -0.00181 0.60036 2.47740 1.71783 -0.00589 21.65204 0.00231 0.41677 2.61983 1.76087 1.89573 -0.12592 0.05255 -3.78526 0.10937 -1.53978 17.06307 0.00088 -0.00332 -74.15635 4.14863 -10.60163 25.13741 -0.00389 0.00605 -11.31638 9.90591 -13.18322 23.33964 -0.00700 -0.01510 -10.14830 17.19658 0.54691 4.87701 -1.04399 3.60801 -41.57594 -8.45725 -7.72881 2.66500 0.00000 0.00001 0.00000 -0.00000 5.00000 2.54300 0.00000 0.00001 -0.00001 0.00000 60.00001 9.23202 -0.30100 2.14403 -80.00000 -0.00000 0.00000 4.22500 0.00001 -0.00001 -90.00000 -0.00000 -0.00000 2.65399 0.00000 0.00001 -70.00000 -0.00000 -0.00000 8.92000 -0.00001 0.00000 -80.00000 -0.00000 0.00000 4.86299 0.00001 0.00001 -90.00000 -0.00000 -0.00000 2.76501 0.00001 0.00000 -70.00000 -0.00000 -0.00000 8.68900 -0.12599 -2.08697 -80.00000 -0.00000 0.00000 4.53799 0.00001 0.00001 -90.00000 -0.00000 -0.00000 2.30501 0.00002 -0.00002 -70.00000 -0.00000 -0.00000 8.39100 -0.81700 -3.75798 -80.00000 -0.00000 0.00000 3.04400 0.00000 0.00000 -90.00000 -0.00000 -0.00000 1.97501 0.00001 -0.00001 -70.00000 -0.00000 -0.00000 -1.60574 -0.13002 0.05084 4.64449 0.16237 1.77992 -14.47961 -0.00107 0.00681 63.55367 1.17366 33.53639 -19.34344 -0.00940 -0.00885 157.44136 9.68079 36.06561 -20.74995 -0.00155 -0.00075 4.62207 4.84276 1.88602 -4.87701 -1.04400 3.60800 37.43505 21.26358 8.20941 -2.66498 -0.00001 -0.00001 -0.00000 -0.00000 -5.00526 -2.54301 0.00001 0.00001 0.00000 0.00000 -59.99586 -9.23200 -0.30100 2.14398 79.99652 -0.00000 -0.00000 -4.22502 0.00000 0.00002 89.99767 -0.00001 0.00000 -2.65400 0.00000 0.00000 69.99769 0.00494 0.00479 -8.92000 0.00000 0.00000 79.99660 -0.00001 -0.00000 -4.86300 0.00000 -0.00001 89.99634 -0.00001 -0.00000 -2.76500 -0.00002 -0.00002 69.99633 0.00494 0.00479 -8.68900 -0.12600 -2.08702 79.99660 -0.00001 -0.00000 -4.53801 0.00000 0.00002 89.99634 -0.00001 -0.00000 -2.30501 0.00002 0.00001 69.99633 0.00494 0.00479 -8.39100 -0.81700 -3.75801 79.99652 -0.00000 -0.00000 -3.04400 0.00000 0.00001 89.99767 -0.00001 0.00000 -1.97500 0.00000 0.00001 69.99769 0.00494 0.00479 0.00231 0.70915 -0.00432 0.00002 0.00535 0.00388 -0.01245 6.38525 0.00958 8.23408 12.65848 -15.85814 
-1.93528 77.38411 -234.43552 1.07191 1.45007 9.37183 7.24782 0.49018 3.29253 -3.35246 4.04679 1.35051 0.00685 -34.59444 0.00366 7.37320 -1.23308 6.26864 -0.00671 -33.38383 -0.00796 0.70802 30.71953 -1.38084 -8.29443 0.51832 3.25354 -0.53040 6.38230 -1.40952 0.00538 -37.10871 0.00845 -5.58242 -7.27255 -21.79382 -0.00530 -31.87893 0.00229 2.90207 32.35671 -5.40904 0.00772 29.51127 -0.00184 0.58525 2.48499 1.68862 -0.00589 21.61388 0.00231 0.41933 2.63199 1.73070 1.89503 -0.11688 0.04025 -3.49370 0.07757 -1.15987 17.08916 0.00083 -0.00331 -74.38911 4.23658 -10.72492 25.13724 -0.00381 0.00600 -11.42273 9.91727 -13.11840 23.39819 -0.00767 -0.01508 -9.58460 17.13771 -1.36110 4.87701 -1.04399 3.60801 -41.57594 -8.45725 -7.72881 2.66500 0.00000 0.00001 0.00000 -0.00000 5.00000 2.54300 0.00000 0.00001 -0.00001 0.00000 60.00001 9.23202 -0.30100 2.14403 -80.00000 -0.00000 0.00000 4.22500 0.00001 -0.00001 -90.00000 -0.00000 -0.00000 2.65399 0.00000 0.00001 -70.00000 -0.00000 -0.00000 8.92000 -0.00001 0.00000 -80.00000 -0.00000 0.00000 4.86299 0.00001 0.00001 -90.00000 -0.00000 -0.00000 2.76501 0.00001 0.00000 -70.00000 -0.00000 -0.00000 8.68900 -0.12599 -2.08697 -80.00000 -0.00000 0.00000 4.53799 0.00001 0.00001 -90.00000 -0.00000 -0.00000 2.30501 0.00002 -0.00002 -70.00000 -0.00000 -0.00000 8.39100 -0.81700 -3.75798 -80.00000 -0.00000 0.00000 3.04400 0.00000 0.00000 -90.00000 -0.00000 -0.00000 1.97501 0.00001 -0.00001 -70.00000 -0.00000 -0.00000 -1.60621 -0.12353 0.03871 4.39583 0.12222 1.33704 -14.46039 -0.00106 0.00649 63.59966 1.47400 33.81487 -19.34333 -0.00198 -0.00857 158.03929 8.50004 36.12847 -20.79321 -0.00173 -0.00089 4.97067 1.49174 1.24532 -4.87701 -1.04400 3.60800 37.43508 21.26361 8.20937 -2.66498 -0.00001 -0.00001 -0.00000 -0.00000 -5.00526 -2.54301 0.00001 0.00001 0.00000 0.00000 -59.99586 -9.23200 -0.30100 2.14398 79.99657 -0.00000 -0.00000 -4.22502 0.00000 0.00002 89.99770 -0.00001 0.00000 -2.65400 0.00000 0.00000 69.99772 0.00494 0.00479 -8.92000 0.00000 0.00000 79.99660 -0.00001 -0.00000 -4.86300 0.00000 -0.00001 89.99634 -0.00001 -0.00000 -2.76500 -0.00002 -0.00002 69.99633 0.00494 0.00479 -8.68900 -0.12600 -2.08702 79.99660 -0.00001 -0.00000 -4.53801 0.00000 0.00002 89.99634 -0.00001 -0.00000 -2.30501 0.00002 0.00001 69.99633 0.00494 0.00479 -8.39100 -0.81700 -3.75801 79.99657 -0.00000 -0.00000 -3.04400 0.00000 0.00001 89.99770 -0.00001 0.00000 -1.97500 0.00000 0.00001 69.99772 0.00494 0.00479 0.00231 0.70878 -0.00432 0.00002 0.00535 0.00388 -0.01220 6.37258 0.00898 8.09325 12.69919 -15.72450 
-1.98508 77.37744 -234.46750 1.12651 1.56578 9.20170 7.25952 0.49928 3.29343 -3.35709 3.91845 1.15313 0.00685 -34.56003 0.00360 7.27768 -1.17026 6.55026 -0.00671 -33.40566 -0.00796 0.61312 30.79658 -1.19260 -8.28361 0.52223 3.26023 -0.58001 6.22163 -1.68690 0.00538 -37.04460 0.00845 -5.54320 -7.29390 -21.44542 -0.00530 -31.87228 0.00222 2.90897 32.50851 -5.39897 0.00772 29.44860 -0.00187 0.55664 2.46817 1.63222 -0.00589 21.57206 0.00230 0.41767 2.62824 1.67321 1.89478 -0.10659 0.02797 -3.16000 0.04936 -0.78735 17.11862 0.00078 -0.00330 -74.64702 4.30805 -10.81028 25.13713 -0.00374 0.00596 -11.55885 9.89319 -13.10433 23.46200 -0.00832 -0.01040 -8.93343 16.87934 -3.10674 4.87701 -1.04399 3.60801 -41.57594 -8.45725 -7.72881 2.66500 0.00000 0.00001 0.00000 -0.00000 5.00000 2.54300 0.00000 0.00001 -0.00001 0.00000 60.00001 9.23202 -0.30100 2.14403 -80.00000 -0.00000 0.00000 4.22500 0.00001 -0.00001 -90.00000 -0.00000 -0.00000 2.65399 0.00000 0.00001 -70.00000 -0.00000 -0.00000 8.92000 -0.00001 0.00000 -80.00000 -0.00000 0.00000 4.86299 0.00001 0.00001 -90.00000 -0.00000 -0.00000 2.76501 0.00001 0.00000 -70.00000 -0.00000 -0.00000 8.68900 -0.12599 -2.08697 -80.00000 -0.00000 0.00000 4.53799 0.00001 0.00001 -90.00000 -0.00000 -0.00000 2.30501 0.00002 -0.00002 -70.00000 -0.00000 -0.00000 8.39100 -0.81700 -3.75798 -80.00000 -0.00000 0.00000 3.04400 0.00000 0.00000 -90.00000 -0.00000 -0.00000 1.97501 0.00001 -0.00001 -70.00000 -0.00000 -0.00000 -1.60674 -0.11779 0.02658 4.16539 0.08521 0.89941 -14.45677 -0.00104 0.00618 63.85181 1.76912 34.18976 -19.34611 -0.00190 -0.00826 158.20236 7.50274 36.32967 -20.83105 -0.00191 -0.00101 5.48969 -1.68831 1.26747 -4.87701 -1.04400 3.60800 37.43511 21.26364 8.20934 -2.66498 -0.00001 -0.00001 -0.00000 -0.00000 -5.00526 -2.54301 0.00001 0.00001 0.00000 0.00000 -59.99586 -9.23200 -0.30100 2.14398 79.99661 -0.00000 -0.00000 -4.22502 0.00000 0.00002 89.99773 -0.00001 0.00000 -2.65400 0.00000 0.00000 69.99774 0.00494 0.00479 -8.92000 0.00000 0.00000 79.99660 -0.00001 -0.00000 -4.86300 0.00000 -0.00001 89.99634 -0.00001 -0.00000 -2.76500 -0.00002 -0.00002 69.99633 0.00494 0.00479 -8.68900 -0.12600 -2.08702 79.99660 -0.00001 -0.00000 -4.53801 0.00000 0.00002 89.99634 -0.00001 -0.00000 -2.30501 0.00002 0.00001 69.99633 0.00494 0.00479 -8.39100 -0.81700 -3.75801 79.99661 -0.00000 -0.00000 -3.04400 0.00000 0.00001 89.99773 -0.00001 0.00000 -1.97500 0.00000 0.00001 69.99774 0.00494 0.00479 0.00231 0.70846 -0.00432 0.00002 0.00535 0.00388 -0.01179 6.35829 0.00840 7.99791 12.95795 -15.42796 
-2.03272 77.36918 -234.49248 1.17202 1.66260 9.04873 7.26876 0.50855 3.29444 -3.35069 3.81448 0.98594 0.00685 -34.53667 0.00354 7.19557 -1.12252 6.80300 -0.00671 -33.41541 -0.00796 0.52251 30.89949 -1.01277 -8.27359 0.52397 3.26725 -0.62350 6.09020 -1.93770 0.00538 -36.99376 0.00845 -5.48729 -7.30366 -21.13063 -0.00530 -31.87019 0.00215 2.87559 32.55116 -5.33060 0.00772 29.39148 -0.00190 0.52513 2.44432 1.58448 -0.00589 21.53400 0.00229 0.41326 2.62004 1.62466 1.89482 -0.09691 0.01666 -2.84962 0.02743 -0.44739 17.13906 0.00074 -0.00329 -74.86504 4.37897 -10.88674 25.13708 -0.00366 0.00591 -11.69871 9.86026 -13.14708 23.50010 -0.00894 -0.00504 -8.87123 16.77484 -4.69604 4.87701 -1.04399 3.60801 -41.57594 -8.45725 -7.72881 2.66500 0.00000 0.00001 0.00000 -0.00000 5.00000 2.54300 0.00000 0.00001 -0.00001 0.00000 60.00001 9.23202 -0.30100 2.14403 -80.00000 -0.00000 0.00000 4.22500 0.00001 -0.00001 -90.00000 -0.00000 -0.00000 2.65399 0.00000 0.00001 -70.00000 -0.00000 -0.00000 8.92000 -0.00001 0.00000 -80.00000 -0.00000 0.00000 4.86299 0.00001 0.00001 -90.00000 -0.00000 -0.00000 2.76501 0.00001 0.00000 -70.00000 -0.00000 -0.00000 8.68900 -0.12599 -2.08697 -80.00000 -0.00000 0.00000 4.53799 0.00001 0.00001 -90.00000 -0.00000 -0.00000 2.30501 0.00002 -0.00002 -70.00000 -0.00000 -0.00000 8.39100 -0.81700 -3.75798 -80.00000 -0.00000 0.00000 3.04400 0.00000 0.00000 -90.00000 -0.00000 -0.00000 1.97501 0.00001 -0.00001 -70.00000 -0.00000 -0.00000 -1.60733 -0.11279 0.01539 3.96349 0.05329 0.49963 -14.46005 -0.00103 0.00589 64.19440 1.98499 34.61876 -19.34944 -0.00182 -0.00791 158.13728 6.64167 36.56560 -20.90855 -0.00207 -0.00113 6.06518 -4.90231 1.45576 -4.87701 -1.04400 3.60800 37.43514 21.26368 8.20931 -2.66498 -0.00001 -0.00001 -0.00000 -0.00000 -5.00526 -2.54301 0.00001 0.00001 0.00000 0.00000 -59.99586 -9.23200 -0.30100 2.14398 79.99665 -0.00000 -0.00000 -4.22502 0.00000 0.00002 89.99776 -0.00001 0.00000 -2.65400 0.00000 0.00000 69.99777 0.00494 0.00479 -8.92000 0.00000 0.00000 79.99660 -0.00001 -0.00000 -4.86300 0.00000 -0.00001 89.99634 -0.00001 -0.00000 -2.76500 -0.00002 -0.00002 69.99633 0.00494 0.00479 -8.68900 -0.12600 -2.08702 79.99660 -0.00001 -0.00000 -4.53801 0.00000 0.00002 89.99634 -0.00001 -0.00000 -2.30501 0.00002 0.00001 69.99633 0.00494 0.00479 -8.39100 -0.81700 -3.75801 79.99665 -0.00000 -0.00000 -3.04400 0.00000 0.00001 89.99776 -0.00001 0.00000 -1.97500 0.00000 0.00001 69.99777 0.00494 0.00479 0.00231 0.70814 -0.00432 0.00002 0.00535 0.00388 -0.01114 6.34592 0.00732 8.00233 13.29652 -15.25899 
